<?xml version="1.0" encoding="UTF-8"?> <!-- Generator: Adobe Illustrator 18.0.0, SVG Export Plug-In . SVG Version: 6.00 Build 0) --> <svg xmlns="http://www.w3.org/2000/svg" xmlns:xlink="http://www.w3.org/1999/xlink" x="0px" y="0px" viewBox="0 0 4204.3 789.7" xml:space="preserve"> <g id="grey" display="none"> </g> <g id="Layer_1"> <g> <polygon fill="#FFFFFF" points="1468.2,787.6 1468.2,635.6 1489.5,635.6 1489.5,696.8 1519.2,635.6 1541.1,635.6 1512.9,692.2 1545,787.6 1522.9,787.6 1500.4,716.4 1489.5,737.7 1489.5,787.6 "></polygon> <rect x="1681.7" y="635.6" fill="#FFFFFF" width="21.7" height="152"></rect> <polygon fill="#FFFFFF" points="1866,787.6 1866,655.7 1843.2,655.7 1843.2,635.6 1909.6,635.6 1909.6,655.7 1887.3,655.7 1887.3,787.6 "></polygon> <path fill="#FFFFFF" d="M2072.6,789.7c-29.6,0-33.4-22.3-33.4-36.5v-81c0-28.4,15.4-38.4,33.2-38.4c20.2,0,32.6,11.5,32.6,38.4 v14.4h-21.5v-14.4c0-12.1-2.3-18.8-11.1-18.8c-10.7,0-11.9,9.6-11.9,18.8v81c0,3.5,0,17.1,11.9,17.1c11.1,0,11.1-11.5,11.1-17.1 v-18.6h21.5v18.6C2105,777.8,2091.8,789.7,2072.6,789.7"></path> <polygon fill="#FFFFFF" points="2247.1,787.6 2247.1,635.6 2268.6,635.6 2268.6,698.9 2293.4,698.9 2293.4,635.6 2314.7,635.6 2314.7,787.6 2293.4,787.6 2293.4,718.9 2268.6,718.9 2268.6,787.6 "></polygon> <polygon fill="#FFFFFF" points="2461.8,787.6 2461.8,635.6 2520.1,635.6 2520.1,655.5 2483.1,655.5 2483.1,699.1 2515.1,699.1 2515.1,718.5 2483.1,718.5 2483.1,767.8 2521.3,767.8 2521.3,787.6 "></polygon> <polygon fill="#FFFFFF" points="2660.5,787.6 2660.5,635.6 2688.7,635.6 2716.1,736 2716.1,635.6 2736.1,635.6 2736.1,787.6 2708.3,787.6 2680.6,683.6 2680.6,787.6 "></polygon> <rect x="-1447.8" y="-571.3" display="none" fill="none" width="7107.4" height="1636.6"></rect> </g> <path fill-rule="evenodd" clip-rule="evenodd" fill="#FFFFFF" d="M4076.8,0h-377.2c-31.6,7.1-30.5,70.4,1.8,71.6l245.2,0.5 c32.7-0.8,74.8,14.3,76.9,34v44.4c-152.3,8.8-356.9,27.6-420.2,122.6c-22.3,44-5.8,69.4,0,82.6l-159.4-0.1 c-30.5-0.4-88.8-13.7-92.5-51.4V39.6c0.2-34.6-26.6-39.5-57.6-39.5L642,0c-14.6,0.9-74.4,6.8-90.3,27.9 c-15,14.7-20.7,16.1-37.8-0.4C497.4,12.6,477-0.1,423,0H139C54,6.3,1.7,44.9,0,83.5v311.3c0.5,29.8,22.6,29,36.8,29h112.8 c20.5,0,21.8-6.9,21.8-24.8l-0.5-266.1c15.1-77.7,243.7-86.2,263.6,0v267.3c0,20.2,9.1,23.4,28.5,23.4h126.8 c25.3,0,26.8-5.2,26.8-30.5V133c1-87.8,247.5-81.6,249.9-0.2v263.8c0,23.9,7,27.2,33,27.2l118.6-0.1c27.2,0,32.1-8.8,32.1-36.1 v-293l-11.9-22.9l440.6-0.3c32.6,1.7,64.4,12.4,72.5,43.1l-0.1,35.8c-107.8,7.4-233.7,15.8-339.9,61.1 c-191.4,81.6-65.6,197,96.2,212.6h263.8c82.2-6.1,144.1-25.4,161.8-73.5l0.7-255.6c-0.8-9.2-2.7-19.1-12.1-23.3h125.7 c-20.5,15.7-20.1,91.7,3.9,113.2c2.5,2.2,5.2,4.4,8.2,6.5c48.3,33.7,163.4,51.5,284.4,76.6c152.2,29.2-21.3,134.2-118.6,63.4 c-232.6-169.4-317.2,73.5-24.9,92.5h190.6c262.7-17.1,253.5-208.8,3.3-250.1c-229.8-31.1-226.1-91.2-96.5-101.9h699.3 c22.8,2.5,61.6,18.1,64.1,44V152c-107.7,5.1-238.5,16.9-341.9,57.2C2347,286.3,2431.7,409.8,2625,424h261.3 c48.8-0.7,146.3-19.7,155.8-72.6V83.1L3032,71.4h136.4l0.3,266.3c-0.4,56.1,38.4,84.8,119.8,87l780.7,0.7 c31.4-0.1,113.5-10,135-58.7V75C4190.7,36.4,4135.1,6,4076.8,0z M1550.6,340.5c-293.8,46-320.3-98.1,0-109.8V340.5z M2864,334.5 c-293.8,46-320.3-98.1,0-109.8V334.5z M4023.8,340.5c-293.8,46-320.3-98.1,0-109.8V340.5z"></path> </g> </svg> 