<?xml version="1.0" encoding="UTF-8"?> <!-- Generator: Adobe Illustrator 18.0.0, SVG Export Plug-In . SVG Version: 6.00 Build 0) --> <svg xmlns="http://www.w3.org/2000/svg" xmlns:xlink="http://www.w3.org/1999/xlink" id="Layer_1" x="0px" y="0px" viewBox="0 0 340.2 112.7" xml:space="preserve"> <path fill="#FFFFFF" d="M0,112.7h340.2V0H0V112.7z M3.2,3.2H337v106.3H3.2V3.2z"></path> <path fill="#FFFFFF" d="M311.9,29.4h-27.1c-2.3,0.5-2.2,5.1,0.1,5.1l17.6,0c2.4-0.1,5.4,1,5.5,2.4v3.2c-10.9,0.6-25.6,2-30.2,8.8 c-1.6,3.2-0.4,5,0,5.9l-11.4,0c-2.2,0-6.4-1-6.6-3.7v-19c0-2.5-1.9-2.8-4.1-2.8l-190.4,0c-1.1,0.1-5.3,0.5-6.5,2 c-1.1,1.1-1.5,1.2-2.7,0c-1.2-1.1-2.6-2-6.5-2H29.1c-6.1,0.5-9.9,3.2-10,6v22.3c0,2.1,1.6,2.1,2.6,2.1h8.1c1.5,0,1.6-0.5,1.6-1.8 l0-19.1c1.1-5.6,17.5-6.2,18.9,0v19.2c0,1.5,0.7,1.7,2,1.7h9.1c1.8,0,1.9-0.4,1.9-2.2V39c0.1-6.3,17.8-5.9,17.9,0v18.9 c0,1.7,0.5,2,2.4,1.9l8.5,0c2,0,2.3-0.6,2.3-2.6v-21l-0.9-1.6l31.6,0c2.3,0.1,4.6,0.9,5.2,3.1l0,2.6c-7.7,0.5-16.8,1.1-24.4,4.4 c-13.7,5.9-4.7,14.1,6.9,15.3H132c5.9-0.4,10.4-1.8,11.6-5.3l0.1-18.3c-0.1-0.7-0.2-1.4-0.9-1.7h9c-1.5,1.1-1.4,6.6,0.3,8.1 c0.2,0.2,0.4,0.3,0.6,0.5c3.5,2.4,11.7,3.7,20.4,5.5c10.9,2.1-1.5,9.6-8.5,4.5c-16.7-12.2-22.8,5.3-1.8,6.6h13.7 c18.9-1.2,18.2-15,0.2-18c-16.5-2.2-16.2-6.5-6.9-7.3H220c1.6,0.2,4.4,1.3,4.6,3.2v2.6c-7.7,0.4-17.1,1.2-24.5,4.1 c-12.4,5.5-6.3,14.4,7.6,15.4h18.8c3.5,0,10.5-1.4,11.2-5.2V35.4l-0.7-0.8h9.8l0,19.1c0,4,2.8,6.1,8.6,6.2l56.1,0 c2.3,0,8.2-0.7,9.7-4.2V34.8C320,32.1,316,29.9,311.9,29.4 M130.5,53.9c-21.1,3.3-23-7,0-7.9V53.9z M224.6,53.9 c-21.1,3.3-23-7,0-7.9V53.9z M308.1,53.9c-21.1,3.3-23-7,0-7.9V53.9z"></path> <polygon fill="#FFFFFF" points="79.2,75.1 86.2,75.1 86.2,77.3 81.8,77.3 81.8,79.9 85.9,79.9 85.9,82 81.8,82 81.8,86.6 79.2,86.6 "></polygon> <path fill="#FFFFFF" d="M115.1,83.7l-0.8,2.9h-2.7l3.5-11.5h3.4l3.6,11.5h-2.8l-0.9-2.9H115.1z M118,81.7l-0.7-2.4 c-0.2-0.7-0.4-1.5-0.6-2.2h0c-0.2,0.7-0.3,1.5-0.5,2.2l-0.7,2.4H118z"></path> <path fill="#FFFFFF" d="M158.8,82.2c-0.1-1.4-0.1-3-0.1-4.7h-0.1c-0.4,1.5-0.8,3.1-1.3,4.4l-1.4,4.5h-2l-1.2-4.4 c-0.4-1.3-0.8-3-1-4.5h0c-0.1,1.5-0.1,3.3-0.2,4.7l-0.2,4.4h-2.4l0.7-11.5h3.5l1.1,3.8c0.4,1.3,0.7,2.8,1,4.1h0.1 c0.3-1.3,0.7-2.8,1.1-4.1l1.2-3.8h3.4l0.6,11.5H159L158.8,82.2z"></path> <rect x="189" y="75.1" fill="#FFFFFF" width="2.6" height="11.5"></rect> <polygon fill="#FFFFFF" points="219.3,75.1 221.9,75.1 221.9,84.4 226.5,84.4 226.5,86.6 219.3,86.6 "></polygon> <path fill="#FFFFFF" d="M254.7,86.6v-4.7l-3.6-6.8h3l1.2,2.8c0.4,0.8,0.6,1.4,0.9,2.2h0c0.3-0.7,0.5-1.4,0.9-2.2l1.2-2.8h2.9 l-3.8,6.7v4.8H254.7z"></path> </svg> 